# xmcd
#
# Track frame offsets: 
#        150
#        22350
#        34006
#        59678
#        78764
#        98135
#        110960
#        133145
#        149034
#        158307
#        177321
#        195869
#        220576
#        233543
#        240631
#        264069
#
# Disc length: 3934 seconds
#
# Revision: 2
# Processed by: cddbd v1.5.2PL0 Copyright (c) Steve Scherf et al.
# Submitted via: ExactAudioCopy v1.0b3
#
DISCID=d60f5c10
DTITLE=Gerd Köster and Dirk Raulf - Hasenbrot
DYEAR=2008
DGENRE=Folk/Rock
TTITLE0=All the world is green
TTITLE1=Mein Zimmer bei Nacht
TTITLE2=Sympathy for the Devil
TTITLE3=Makulatur
TTITLE4=Wenn es nach mir ging
TTITLE5=Tür in der Wand
TTITLE6=Hippiemusik
TTITLE7=Blauer Hafen
TTITLE8=Lake of fire
TTITLE9=My own desire (Vampire's lullaby)
TTITLE10=Hillije Naach
TTITLE11=Logische Standpunkt
TTITLE12=Ermesse-Spielraum
TTITLE13=Bin i radi
TTITLE14=Es regnet Fisch
TTITLE15=Don't go into that barn
EXTD=
EXTT0=
EXTT1=
EXTT2=
EXTT3=
EXTT4=
EXTT5=
EXTT6=
EXTT7=
EXTT8=
EXTT9=
EXTT10=
EXTT11=
EXTT12=
EXTT13=
EXTT14=
EXTT15=
PLAYORDER=
